ffmpeg started on 2025-06-16 at 16:38:00
Report written to "D:\Convert\FFMetrics\reports\psnr_report-6.txt"
Log level: 32
Command line:
ffmpeg -hide_banner -nostdin -i "G:\\\xc0\xed\xe8\xec\xe5\\[\xd2\xee\xef]\\\xd0\xfb\xf6\xe0\xf0\xfc-\xe2\xe0\xec\xef\xe8\xf0\\\xd2\xc2-1\\[JamClub] Vampire Knight - 12_HEVC.mkv" -i "G:\\\xc0\xed\xe8\xec\xe5\\[\xd2\xee\xef]\\\xd0\xfb\xf6\xe0\xf0\xfc-\xe2\xe0\xec\xef\xe8\xf0\\\xd2\xc2-1\\[JamClub] Vampire Knight - 12.mp4" -lavfi "[0:v]settb=AVTB,setpts=PTS-STARTPTS,format=pix_fmts=yuv420p10,fps=24000/1001,scale=1920:1080:flags=bicubic[main];[1:v]settb=AVTB,setpts=PTS-STARTPTS,format=pix_fmts=yuv420p,fps=24000/1001,scale=1920:1080:flags=bicubic[ref];[main][ref]psnr=eof_action=endall:stats_file='D\\:/Convert/FFMetrics/logs/psnr_logfile-6.txt'" -f null -
Input #0, matroska,webm, from 'G:\Аниме\[Топ]\Рыцарь-вампир\ТВ-1\[JamClub] Vampire Knight - 12_HEVC.mkv':
  Metadata:
    COMPATIBLE_BRANDS: isomiso2avc1mp41
    MAJOR_BRAND     : isom
    MINOR_VERSION   : 512
    ENCODER         : Lavf61.7.100
  Duration: 00:24:22.24, start: -0.001000, bitrate: 945 kb/s
  Stream #0:0: Video: hevc (Main 10), yuv420p10le(tv, bt709, progressive), 1920x1080 [SAR 1:1 DAR 16:9], 23.98 fps, 23.98 tbr, 1k tbn (default)
      Metadata:
        HANDLER_NAME    : VideoHandler
        VENDOR_ID       : [0][0][0][0]
        ENCODER         : Lavc61.19.100 libx265
        BPS             : 747503
        DURATION        : 00:24:22.168708333
        NUMBER_OF_FRAMES: 43688
        NUMBER_OF_BYTES : 136621923
        _STATISTICS_WRITING_APP: mkvpropedit v66.0.0 ('Josie') 64-bit
        _STATISTICS_WRITING_DATE_UTC: 2025-06-16 09:32:38
        _STATISTICS_TAGS: BPS DURATION NUMBER_OF_FRAMES NUMBER_OF_BYTES
  Stream #0:1(eng): Audio: aac (LC), 48000 Hz, stereo, fltp (default)
      Metadata:
        HANDLER_NAME    : SoundHandler
        VENDOR_ID       : [0][0][0][0]
        ENCODER         : Lavc61.19.100 aac
        BPS             : 194103
        DURATION        : 00:24:22.202000000
        NUMBER_OF_FRAMES: 68542
        NUMBER_OF_BYTES : 35477333
        _STATISTICS_WRITING_APP: mkvpropedit v66.0.0 ('Josie') 64-bit
        _STATISTICS_WRITING_DATE_UTC: 2025-06-16 09:32:38
        _STATISTICS_TAGS: BPS DURATION NUMBER_OF_FRAMES NUMBER_OF_BYTES
Input #1, mov,mp4,m4a,3gp,3g2,mj2, from 'G:\Аниме\[Топ]\Рыцарь-вампир\ТВ-1\[JamClub] Vampire Knight - 12.mp4':
  Metadata:
    major_brand     : isom
    minor_version   : 512
    compatible_brands: isomiso2avc1mp41
    encoder         : Lavf60.16.100
  Duration: 00:24:22.22, start: 0.000000, bitrate: 3690 kb/s
  Stream #1:0[0x1](und): Video: h264 (High) (avc1 / 0x31637661), yuv420p(progressive), 1920x1080 [SAR 1:1 DAR 16:9], 3489 kb/s, 29.88 fps, 23.98 tbr, 90k tbn (default)
      Metadata:
        handler_name    : VideoHandler
        vendor_id       : [0][0][0][0]
  Stream #1:1[0x2](eng): Audio: aac (LC) (mp4a / 0x6134706D), 48000 Hz, stereo, fltp, 191 kb/s (default)
      Metadata:
        handler_name    : SoundHandler
        vendor_id       : [0][0][0][0]
Stream mapping:
  Stream #0:0 (hevc) -> settb:default
  Stream #1:0 (h264) -> settb:default
  psnr:default -> Stream #0:0 (wrapped_avframe)
  Stream #0:1 -> #0:1 (aac (native) -> pcm_s16le (native))
Output #0, null, to 'pipe:':
  Metadata:
    COMPATIBLE_BRANDS: isomiso2avc1mp41
    MAJOR_BRAND     : isom
    MINOR_VERSION   : 512
    encoder         : Lavf61.7.100
  Stream #0:0: Video: wrapped_avframe, yuv420p10le(tv, bt709, progressive), 1920x1080 [SAR 1:1 DAR 16:9], q=2-31, 200 kb/s, 23.98 fps, 23.98 tbn
      Metadata:
        encoder         : Lavc61.19.100 wrapped_avframe
  Stream #0:1(eng): Audio: pcm_s16le, 48000 Hz, stereo, s16, 1536 kb/s (default)
      Metadata:
        HANDLER_NAME    : SoundHandler
        VENDOR_ID       : [0][0][0][0]
        _STATISTICS_TAGS: BPS DURATION NUMBER_OF_FRAMES NUMBER_OF_BYTES
        BPS             : 194103
        DURATION        : 00:24:22.202000000
        NUMBER_OF_FRAMES: 68542
        NUMBER_OF_BYTES : 35477333
        _STATISTICS_WRITING_APP: mkvpropedit v66.0.0 ('Josie') 64-bit
        _STATISTICS_WRITING_DATE_UTC: 2025-06-16 09:32:38
        encoder         : Lavc61.19.100 pcm_s16le
frame=  107 fps=0.0 q=-0.0 size=N/A time=00:00:04.46 bitrate=N/A speed=8.83x    frame=  263 fps=255 q=-0.0 size=N/A time=00:00:10.96 bitrate=N/A speed=10.6x    frame=  457 fps=296 q=-0.0 size=N/A time=00:00:19.06 bitrate=N/A speed=12.3x    frame=  701 fps=341 q=-0.0 size=N/A time=00:00:29.23 bitrate=N/A speed=14.2x    frame=  931 fps=361 q=-0.0 size=N/A time=00:00:38.83 bitrate=N/A speed=15.1x    frame= 1173 fps=380 q=-0.0 size=N/A time=00:00:48.92 bitrate=N/A speed=15.8x    frame= 1409 fps=392 q=-0.0 size=N/A time=00:00:58.76 bitrate=N/A speed=16.3x    frame= 1634 fps=396 q=-0.0 size=N/A time=00:01:08.15 bitrate=N/A speed=16.5x    frame= 1855 fps=400 q=-0.0 size=N/A time=00:01:17.36 bitrate=N/A speed=16.7x    frame= 2093 fps=406 q=-0.0 size=N/A time=00:01:27.29 bitrate=N/A speed=16.9x    frame= 2334 fps=411 q=-0.0 size=N/A time=00:01:37.34 bitrate=N/A speed=17.1x    frame= 2560 fps=413 q=-0.0 size=N/A time=00:01:46.77 bitrate=N/A speed=17.2x    frame= 2799 fps=416 q=-0.0 size=N/A time=00:01:56.74 bitrate=N/A speed=17.4x    frame= 2997 fps=414 q=-0.0 size=N/A time=00:02:04.99 bitrate=N/A speed=17.3x    frame= 3165 fps=409 q=-0.0 size=N/A time=00:02:12.00 bitrate=N/A speed=  17x    frame= 3329 fps=403 q=-0.0 size=N/A time=00:02:18.84 bitrate=N/A speed=16.8x    frame= 3514 fps=400 q=-0.0 size=N/A time=00:02:26.56 bitrate=N/A speed=16.7x    frame= 3699 fps=398 q=-0.0 size=N/A time=00:02:34.27 bitrate=N/A speed=16.6x    frame= 3910 fps=398 q=-0.0 size=N/A time=00:02:43.07 bitrate=N/A speed=16.6x    frame= 4054 fps=393 q=-0.0 size=N/A time=00:02:49.08 bitrate=N/A speed=16.4x    frame= 4243 fps=392 q=-0.0 size=N/A time=00:02:56.96 bitrate=N/A speed=16.3x    frame= 4409 fps=388 q=-0.0 size=N/A time=00:03:03.89 bitrate=N/A speed=16.2x    frame= 4605 fps=388 q=-0.0 size=N/A time=00:03:12.06 bitrate=N/A speed=16.2x    frame= 4805 fps=388 q=-0.0 size=N/A time=00:03:20.40 bitrate=N/A speed=16.2x    frame= 5027 fps=390 q=-0.0 size=N/A time=00:03:29.66 bitrate=N/A speed=16.2x    frame= 5254 fps=392 q=-0.0 size=N/A time=00:03:39.13 bitrate=N/A speed=16.3x    frame= 5500 fps=395 q=-0.0 size=N/A time=00:03:49.39 bitrate=N/A speed=16.5x    frame= 5714 fps=395 q=-0.0 size=N/A time=00:03:58.32 bitrate=N/A speed=16.5x    frame= 5941 fps=397 q=-0.0 size=N/A time=00:04:07.78 bitrate=N/A speed=16.6x    frame= 6174 fps=399 q=-0.0 size=N/A time=00:04:17.50 bitrate=N/A speed=16.6x    frame= 6431 fps=402 q=-0.0 size=N/A time=00:04:28.22 bitrate=N/A speed=16.8x    frame= 6648 fps=403 q=-0.0 size=N/A time=00:04:37.27 bitrate=N/A speed=16.8x    frame= 6869 fps=404 q=-0.0 size=N/A time=00:04:46.49 bitrate=N/A speed=16.8x    frame= 7100 fps=405 q=-0.0 size=N/A time=00:04:56.12 bitrate=N/A speed=16.9x    frame= 7325 fps=406 q=-0.0 size=N/A time=00:05:05.51 bitrate=N/A speed=16.9x    frame= 7579 fps=408 q=-0.0 size=N/A time=00:05:16.10 bitrate=N/A speed=  17x    frame= 7822 fps=410 q=-0.0 size=N/A time=00:05:26.24 bitrate=N/A speed=17.1x    frame= 8047 fps=411 q=-0.0 size=N/A time=00:05:35.62 bitrate=N/A speed=17.1x    frame= 8279 fps=411 q=-0.0 size=N/A time=00:05:45.30 bitrate=N/A speed=17.2x    frame= 8501 fps=412 q=-0.0 size=N/A time=00:05:54.56 bitrate=N/A speed=17.2x    frame= 8732 fps=413 q=-0.0 size=N/A time=00:06:04.19 bitrate=N/A speed=17.2x    frame= 8974 fps=414 q=-0.0 size=N/A time=00:06:14.29 bitrate=N/A speed=17.3x    frame= 9201 fps=415 q=-0.0 size=N/A time=00:06:23.75 bitrate=N/A speed=17.3x    frame= 9435 fps=416 q=-0.0 size=N/A time=00:06:33.51 bitrate=N/A speed=17.3x    frame= 9679 fps=417 q=-0.0 size=N/A time=00:06:43.73 bitrate=N/A speed=17.4x    frame= 9906 fps=417 q=-0.0 size=N/A time=00:06:53.16 bitrate=N/A speed=17.4x    frame=10129 fps=418 q=-0.0 size=N/A time=00:07:02.46 bitrate=N/A speed=17.4x    frame=10349 fps=418 q=-0.0 size=N/A time=00:07:11.63 bitrate=N/A speed=17.4x    frame=10585 fps=419 q=-0.0 size=N/A time=00:07:21.48 bitrate=N/A speed=17.5x    frame=10823 fps=420 q=-0.0 size=N/A time=00:07:31.40 bitrate=N/A speed=17.5x    frame=11055 fps=420 q=-0.0 size=N/A time=00:07:41.08 bitrate=N/A speed=17.5x    frame=11279 fps=421 q=-0.0 size=N/A time=00:07:50.42 bitrate=N/A speed=17.5x    frame=11501 fps=421 q=-0.0 size=N/A time=00:07:59.68 bitrate=N/A speed=17.5x    frame=11721 fps=421 q=-0.0 size=N/A time=00:08:08.86 bitrate=N/A speed=17.6x    frame=11938 fps=421 q=-0.0 size=N/A time=00:08:17.91 bitrate=N/A speed=17.6x    frame=12185 fps=422 q=-0.0 size=N/A time=00:08:28.21 bitrate=N/A speed=17.6x    frame=12403 fps=422 q=-0.0 size=N/A time=00:08:37.30 bitrate=N/A speed=17.6x    frame=12645 fps=423 q=-0.0 size=N/A time=00:08:47.40 bitrate=N/A speed=17.6x    frame=12871 fps=423 q=-0.0 size=N/A time=00:08:56.82 bitrate=N/A speed=17.6x    frame=13114 fps=424 q=-0.0 size=N/A time=00:09:06.96 bitrate=N/A speed=17.7x    frame=13345 fps=424 q=-0.0 size=N/A time=00:09:16.59 bitrate=N/A speed=17.7x    frame=13581 fps=425 q=-0.0 size=N/A time=00:09:26.44 bitrate=N/A speed=17.7x    frame=13799 fps=425 q=-0.0 size=N/A time=00:09:35.53 bitrate=N/A speed=17.7x    frame=14033 fps=425 q=-0.0 size=N/A time=00:09:45.29 bitrate=N/A speed=17.7x    frame=14273 fps=426 q=-0.0 size=N/A time=00:09:55.30 bitrate=N/A speed=17.8x    frame=14509 fps=426 q=-0.0 size=N/A time=00:10:05.14 bitrate=N/A speed=17.8x    frame=14731 fps=426 q=-0.0 size=N/A time=00:10:14.40 bitrate=N/A speed=17.8x    frame=14983 fps=427 q=-0.0 size=N/A time=00:10:24.91 bitrate=N/A speed=17.8x    frame=15213 fps=427 q=-0.0 size=N/A time=00:10:34.50 bitrate=N/A speed=17.8x    frame=15431 fps=427 q=-0.0 size=N/A time=00:10:43.60 bitrate=N/A speed=17.8x    frame=15638 fps=427 q=-0.0 size=N/A time=00:10:52.23 bitrate=N/A speed=17.8x    frame=15852 fps=427 q=-0.0 size=N/A time=00:11:01.16 bitrate=N/A speed=17.8x    frame=16054 fps=426 q=-0.0 size=N/A time=00:11:09.58 bitrate=N/A speed=17.8x    frame=16293 fps=427 q=-0.0 size=N/A time=00:11:19.55 bitrate=N/A speed=17.8x    frame=16521 fps=427 q=-0.0 size=N/A time=00:11:29.06 bitrate=N/A speed=17.8x    frame=16758 fps=428 q=-0.0 size=N/A time=00:11:38.94 bitrate=N/A speed=17.8x    frame=17012 fps=428 q=-0.0 size=N/A time=00:11:49.54 bitrate=N/A speed=17.9x    frame=17243 fps=429 q=-0.0 size=N/A time=00:11:59.17 bitrate=N/A speed=17.9x    frame=17483 fps=429 q=-0.0 size=N/A time=00:12:09.18 bitrate=N/A speed=17.9x    frame=17712 fps=429 q=-0.0 size=N/A time=00:12:18.73 bitrate=N/A speed=17.9x    frame=17945 fps=429 q=-0.0 size=N/A time=00:12:28.45 bitrate=N/A speed=17.9x    frame=18171 fps=430 q=-0.0 size=N/A time=00:12:37.88 bitrate=N/A speed=17.9x    frame=18408 fps=430 q=-0.0 size=N/A time=00:12:47.76 bitrate=N/A speed=17.9x    frame=18650 fps=430 q=-0.0 size=N/A time=00:12:57.86 bitrate=N/A speed=17.9x    frame=18901 fps=431 q=-0.0 size=N/A time=00:13:08.32 bitrate=N/A speed=  18x    frame=19135 fps=431 q=-0.0 size=N/A time=00:13:18.08 bitrate=N/A speed=  18x    frame=19364 fps=431 q=-0.0 size=N/A time=00:13:27.64 bitrate=N/A speed=  18x    frame=19622 fps=432 q=-0.0 size=N/A time=00:13:38.40 bitrate=N/A speed=  18x    frame=19865 fps=433 q=-0.0 size=N/A time=00:13:48.53 bitrate=N/A speed=  18x    frame=20103 fps=433 q=-0.0 size=N/A time=00:13:58.46 bitrate=N/A speed=18.1x    frame=20349 fps=433 q=-0.0 size=N/A time=00:14:08.72 bitrate=N/A speed=18.1x    frame=20573 fps=433 q=-0.0 size=N/A time=00:14:18.06 bitrate=N/A speed=18.1x    frame=20820 fps=434 q=-0.0 size=N/A time=00:14:28.36 bitrate=N/A speed=18.1x    frame=21067 fps=434 q=-0.0 size=N/A time=00:14:38.66 bitrate=N/A speed=18.1x    frame=21313 fps=435 q=-0.0 size=N/A time=00:14:48.92 bitrate=N/A speed=18.1x    frame=21548 fps=435 q=-0.0 size=N/A time=00:14:58.73 bitrate=N/A speed=18.1x    frame=21780 fps=435 q=-0.0 size=N/A time=00:15:08.40 bitrate=N/A speed=18.1x    frame=22004 fps=435 q=-0.0 size=N/A time=00:15:17.75 bitrate=N/A speed=18.1x    frame=22237 fps=435 q=-0.0 size=N/A time=00:15:27.46 bitrate=N/A speed=18.2x    frame=22475 fps=435 q=-0.0 size=N/A time=00:15:37.39 bitrate=N/A speed=18.2x    frame=22692 fps=435 q=-0.0 size=N/A time=00:15:46.44 bitrate=N/A speed=18.2x    frame=22892 fps=435 q=-0.0 size=N/A time=00:15:54.78 bitrate=N/A speed=18.1x    frame=23102 fps=435 q=-0.0 size=N/A time=00:16:03.54 bitrate=N/A speed=18.1x    frame=23316 fps=434 q=-0.0 size=N/A time=00:16:12.47 bitrate=N/A speed=18.1x    frame=23549 fps=435 q=-0.0 size=N/A time=00:16:22.18 bitrate=N/A speed=18.1x    frame=23793 fps=435 q=-0.0 size=N/A time=00:16:32.36 bitrate=N/A speed=18.1x    frame=24027 fps=435 q=-0.0 size=N/A time=00:16:42.12 bitrate=N/A speed=18.1x    frame=24250 fps=435 q=-0.0 size=N/A time=00:16:51.42 bitrate=N/A speed=18.2x    frame=24504 fps=436 q=-0.0 size=N/A time=00:17:02.02 bitrate=N/A speed=18.2x    frame=24730 fps=436 q=-0.0 size=N/A time=00:17:11.44 bitrate=N/A speed=18.2x    frame=24967 fps=436 q=-0.0 size=N/A time=00:17:21.33 bitrate=N/A speed=18.2x    frame=25166 fps=435 q=-0.0 size=N/A time=00:17:29.63 bitrate=N/A speed=18.2x    frame=25343 fps=435 q=-0.0 size=N/A time=00:17:37.01 bitrate=N/A speed=18.1x    frame=25547 fps=434 q=-0.0 size=N/A time=00:17:45.52 bitrate=N/A speed=18.1x    frame=25716 fps=433 q=-0.0 size=N/A time=00:17:52.57 bitrate=N/A speed=18.1x    frame=25924 fps=433 q=-0.0 size=N/A time=00:18:01.24 bitrate=N/A speed=18.1x    frame=26161 fps=433 q=-0.0 size=N/A time=00:18:11.13 bitrate=N/A speed=18.1x    frame=26406 fps=434 q=-0.0 size=N/A time=00:18:21.35 bitrate=N/A speed=18.1x    frame=26636 fps=434 q=-0.0 size=N/A time=00:18:30.94 bitrate=N/A speed=18.1x    frame=26877 fps=434 q=-0.0 size=N/A time=00:18:40.99 bitrate=N/A speed=18.1x    frame=27118 fps=434 q=-0.0 size=N/A time=00:18:51.04 bitrate=N/A speed=18.1x    frame=27356 fps=435 q=-0.0 size=N/A time=00:19:00.97 bitrate=N/A speed=18.1x    frame=27567 fps=434 q=-0.0 size=N/A time=00:19:09.77 bitrate=N/A speed=18.1x    frame=27794 fps=434 q=-0.0 size=N/A time=00:19:19.24 bitrate=N/A speed=18.1x    frame=28021 fps=434 q=-0.0 size=N/A time=00:19:28.70 bitrate=N/A speed=18.1x    frame=28262 fps=435 q=-0.0 size=N/A time=00:19:38.76 bitrate=N/A speed=18.1x    frame=28509 fps=435 q=-0.0 size=N/A time=00:19:49.06 bitrate=N/A speed=18.1x    frame=28753 fps=435 q=-0.0 size=N/A time=00:19:59.23 bitrate=N/A speed=18.2x    frame=29003 fps=436 q=-0.0 size=N/A time=00:20:09.66 bitrate=N/A speed=18.2x    frame=29248 fps=436 q=-0.0 size=N/A time=00:20:19.88 bitrate=N/A speed=18.2x    frame=29490 fps=436 q=-0.0 size=N/A time=00:20:29.97 bitrate=N/A speed=18.2x    frame=29733 fps=437 q=-0.0 size=N/A time=00:20:40.11 bitrate=N/A speed=18.2x    frame=29967 fps=437 q=-0.0 size=N/A time=00:20:49.87 bitrate=N/A speed=18.2x    frame=30191 fps=437 q=-0.0 size=N/A time=00:20:59.21 bitrate=N/A speed=18.2x    frame=30439 fps=437 q=-0.0 size=N/A time=00:21:09.55 bitrate=N/A speed=18.2x    frame=30677 fps=437 q=-0.0 size=N/A time=00:21:19.48 bitrate=N/A speed=18.2x    frame=30903 fps=437 q=-0.0 size=N/A time=00:21:28.91 bitrate=N/A speed=18.2x    frame=31137 fps=437 q=-0.0 size=N/A time=00:21:38.67 bitrate=N/A speed=18.2x    frame=31369 fps=437 q=-0.0 size=N/A time=00:21:48.34 bitrate=N/A speed=18.2x    frame=31601 fps=437 q=-0.0 size=N/A time=00:21:58.02 bitrate=N/A speed=18.2x    frame=31810 fps=437 q=-0.0 size=N/A time=00:22:06.74 bitrate=N/A speed=18.2x    frame=32027 fps=437 q=-0.0 size=N/A time=00:22:15.79 bitrate=N/A speed=18.2x    frame=32237 fps=437 q=-0.0 size=N/A time=00:22:24.55 bitrate=N/A speed=18.2x    frame=32467 fps=437 q=-0.0 size=N/A time=00:22:34.14 bitrate=N/A speed=18.2x    frame=32704 fps=437 q=-0.0 size=N/A time=00:22:44.02 bitrate=N/A speed=18.2x    frame=32942 fps=437 q=-0.0 size=N/A time=00:22:53.95 bitrate=N/A speed=18.2x    frame=33161 fps=437 q=-0.0 size=N/A time=00:23:03.09 bitrate=N/A speed=18.2x    frame=33369 fps=437 q=-0.0 size=N/A time=00:23:11.76 bitrate=N/A speed=18.2x    frame=33605 fps=437 q=-0.0 size=N/A time=00:23:21.60 bitrate=N/A speed=18.2x    frame=33850 fps=437 q=-0.0 size=N/A time=00:23:31.82 bitrate=N/A speed=18.2x    frame=34103 fps=438 q=-0.0 size=N/A time=00:23:42.37 bitrate=N/A speed=18.3x    frame=34346 fps=438 q=-0.0 size=N/A time=00:23:52.51 bitrate=N/A speed=18.3x    frame=34550 fps=438 q=-0.0 size=N/A time=00:24:01.02 bitrate=N/A speed=18.3x    frame=34763 fps=438 q=-0.0 size=N/A time=00:24:09.90 bitrate=N/A speed=18.3x    frame=35024 fps=438 q=-0.0 size=N/A time=00:24:20.79 bitrate=N/A speed=18.3x    [Parsed_psnr_10 @ 000001e4f816cfc0] PSNR y:50.217136 u:52.240010 v:52.533782 average:50.826744 min:36.011616 max:inf
[out#0/null @ 000001e4f5064280] video:15064KiB audio:274168KiB subtitle:0KiB other streams:0KiB global headers:0KiB muxing overhead: unknown
frame=35057 fps=438 q=-0.0 Lsize=N/A time=00:24:22.16 bitrate=N/A speed=18.3x    
